HIERARCHY
ROOT Root
{
  OFFSET 0.0 0.0 0.0
  CHANNELS 6 Xposition Yposition Zposition Zrotation Yrotation Xrotation
  JOINT Hips
  {
    OFFSET 0.0 100.0 0.0
    CHANNELS 6 Xposition Yposition Zposition Zrotation Yrotation Xrotation
    JOINT Spine1
    {
      OFFSET 5.003913 -0.037094 -0.013727
      CHANNELS 3 Zrotation Yrotation Xrotation
      JOINT Spine2
      {
        OFFSET 7.125363 -1e-06 0.0
        CHANNELS 3 Zrotation Yrotation Xrotation
        JOINT Chest
        {
          OFFSET 7.594027 1e-06 0.0
          CHANNELS 3 Zrotation Yrotation Xrotation
          JOINT Neck1
          {
            OFFSET 26.313086 -0.460272 -0.181672
            CHANNELS 3 Zrotation Yrotation Xrotation
            JOINT Neck2
            {
              OFFSET 8.045911 0.0 0.0
              CHANNELS 3 Zrotation Yrotation Xrotation
              JOINT Head
              {
                OFFSET 6.432774 0.0 0.0
                CHANNELS 3 Zrotation Yrotation Xrotation
                JOINT HeadEnd
                {
                  OFFSET 16.169773 0.06451 0.00362
                  CHANNELS 3 Zrotation Yrotation Xrotation
                }
                JOINT Jaw
                {
                  OFFSET 0.108741 3.12938 0.002639
                  CHANNELS 3 Zrotation Yrotation Xrotation
                }
                JOINT LeftEye
                {
                  OFFSET 4.45173 8.166359 3.206392
                  CHANNELS 3 Zrotation Yrotation Xrotation
                }
                JOINT RightEye
                {
                  OFFSET 4.436895 8.135758 -3.222429
                  CHANNELS 3 Zrotation Yrotation Xrotation
                }
              }
            }
          }
          JOINT LeftShoulder
          {
            OFFSET 23.218927 5.195579 1.621656
            CHANNELS 3 Zrotation Yrotation Xrotation
            JOINT LeftArm
            {
              OFFSET 15.902118 2e-06 -2e-06
              CHANNELS 3 Zrotation Yrotation Xrotation
              JOINT LeftForeArm
              {
                OFFSET 28.739307 0.0 -1e-06
                CHANNELS 3 Zrotation Yrotation Xrotation
                JOINT LeftHand
                {
                  OFFSET 27.093981 -4e-06 0.0
                  CHANNELS 3 Zrotation Yrotation Xrotation
                  JOINT LeftHandThumb1
                  {
                    OFFSET 2.276781 3.380274 0.83384
                    CHANNELS 3 Zrotation Yrotation Xrotation
                    JOINT LeftHandThumb2
                    {
                      OFFSET 4.705309 -1e-06 -1e-06
                      CHANNELS 3 Zrotation Yrotation Xrotation
                      JOINT LeftHandThumb3
                      {
                        OFFSET 2.798515 0.0 3e-06
                        CHANNELS 3 Zrotation Yrotation Xrotation
                        JOINT LeftHandThumbEnd
                        {
                          OFFSET 3.180793 4e-06 -4e-06
                          CHANNELS 3 Zrotation Yrotation Xrotation
                        }
                      }
                    }
                  }
                  JOINT LeftHandIndex1
                  {
                    OFFSET 3.247786 2.352677 0.137192
                    CHANNELS 3 Zrotation Yrotation Xrotation
                    JOINT LeftHandIndex2
                    {
                      OFFSET 6.367095 1e-06 0.0
                      CHANNELS 3 Zrotation Yrotation Xrotation
                      JOINT LeftHandIndex3
                      {
                        OFFSET 3.662364 0.0 0.0
                        CHANNELS 3 Zrotation Yrotation Xrotation
                        JOINT LeftHandIndex4
                        {
                          OFFSET 2.329242 4e-06 -4e-06
                          CHANNELS 3 Zrotation Yrotation Xrotation
                          JOINT LeftHandIndexEnd
                          {
                            OFFSET 2.767823 1e-06 0.0
                            CHANNELS 3 Zrotation Yrotation Xrotation
                          }
                        }
                      }
                    }
                  }
                  JOINT LeftHandMiddle1
                  {
                    OFFSET 3.163612 0.945023 -0.406112
                    CHANNELS 3 Zrotation Yrotation Xrotation
                    JOINT LeftHandMiddle2
                    {
                      OFFSET 6.276789 3e-06 0.0
                      CHANNELS 3 Zrotation Yrotation Xrotation
                      JOINT LeftHandMiddle3
                      {
                        OFFSET 4.35652 -1e-06 4e-06
                        CHANNELS 3 Zrotation Yrotation Xrotation
                        JOINT LeftHandMiddle4
                        {
                          OFFSET 2.996877 0.0 8e-06
                          CHANNELS 3 Zrotation Yrotation Xrotation
                          JOINT LeftHandMiddleEnd
                          {
                            OFFSET 2.323256 3e-06 -4e-06
                            CHANNELS 3 Zrotation Yrotation Xrotation
                          }
                        }
                      }
                    }
                  }
                  JOINT LeftHandRing1
                  {
                    OFFSET 2.882606 -0.309162 0.107445
                    CHANNELS 3 Zrotation Yrotation Xrotation
                    JOINT LeftHandRing2
                    {
                      OFFSET 6.033198 0.0 4e-06
                      CHANNELS 3 Zrotation Yrotation Xrotation
                      JOINT LeftHandRing3
                      {
                        OFFSET 4.350578 3e-06 0.0
                        CHANNELS 3 Zrotation Yrotation Xrotation
                        JOINT LeftHandRing4
                        {
                          OFFSET 2.651321 2e-06 -7e-06
                          CHANNELS 3 Zrotation Yrotation Xrotation
                          JOINT LeftHandRingEnd
                          {
                            OFFSET 1.937663 1e-06 -4e-06
                            CHANNELS 3 Zrotation Yrotation Xrotation
                          }
                        }
                      }
                    }
                  }
                  JOINT LeftHandPinky1
                  {
                    OFFSET 2.865315 -1.525436 0.575687
                    CHANNELS 3 Zrotation Yrotation Xrotation
                    JOINT LeftHandPinky2
                    {
                      OFFSET 5.54936 1e-06 -8e-06
                      CHANNELS 3 Zrotation Yrotation Xrotation
                      JOINT LeftHandPinky3
                      {
                        OFFSET 3.070974 0.0 -4e-06
                        CHANNELS 3 Zrotation Yrotation Xrotation
                        JOINT LeftHandPinky4
                        {
                          OFFSET 1.549672 1e-06 0.0
                          CHANNELS 3 Zrotation Yrotation Xrotation
                          JOINT LeftHandPinkyEnd
                          {
                            OFFSET 1.952123 0.0 0.0
                            CHANNELS 3 Zrotation Yrotation Xrotation
                          }
                        }
                      }
                    }
                  }
                }
              }
            }
          }
          JOINT RightShoulder
          {
            OFFSET 23.161716 5.296122 -1.380114
            CHANNELS 3 Zrotation Yrotation Xrotation
            JOINT RightArm
            {
              OFFSET -16.027195 -2e-06 1.1e-05
              CHANNELS 3 Zrotation Yrotation Xrotation
              JOINT RightForeArm
              {
                OFFSET -28.736639 4e-06 2e-06
                CHANNELS 3 Zrotation Yrotation Xrotation
                JOINT RightHand
                {
                  OFFSET -27.133619 6e-06 0.0
                  CHANNELS 3 Zrotation Yrotation Xrotation
                  JOINT RightHandThumb1
                  {
                    OFFSET -2.274328 -3.351035 -0.83067
                    CHANNELS 3 Zrotation Yrotation Xrotation
                    JOINT RightHandThumb2
                    {
                      OFFSET -4.703594 -3e-06 2e-06
                      CHANNELS 3 Zrotation Yrotation Xrotation
                      JOINT RightHandThumb3
                      {
                        OFFSET -2.794935 -4e-06 -3e-06
                        CHANNELS 3 Zrotation Yrotation Xrotation
                        JOINT RightHandThumbEnd
                        {
                          OFFSET -3.183852 4e-06 1e-06
                          CHANNELS 3 Zrotation Yrotation Xrotation
                        }
                      }
                    }
                  }
                  JOINT RightHandIndex1
                  {
                    OFFSET -3.253496 -2.33755 -0.127667
                    CHANNELS 3 Zrotation Yrotation Xrotation
                    JOINT RightHandIndex2
                    {
                      OFFSET -6.344434 0.0 0.0
                      CHANNELS 3 Zrotation Yrotation Xrotation
                      JOINT RightHandIndex3
                      {
                        OFFSET -3.654871 0.0 -8e-06
                        CHANNELS 3 Zrotation Yrotation Xrotation
                        JOINT RightHandIndex4
                        {
                          OFFSET -2.327586 -1e-06 0.0
                          CHANNELS 3 Zrotation Yrotation Xrotation
                          JOINT RightHandIndexEnd
                          {
                            OFFSET -2.770001 3e-06 8e-06
                            CHANNELS 3 Zrotation Yrotation Xrotation
                          }
                        }
                      }
                    }
                  }
                  JOINT RightHandMiddle1
                  {
                    OFFSET -3.168223 -0.944764 0.411762
                    CHANNELS 3 Zrotation Yrotation Xrotation
                    JOINT RightHandMiddle2
                    {
                      OFFSET -6.266691 -1e-06 -4e-06
                      CHANNELS 3 Zrotation Yrotation Xrotation
                      JOINT RightHandMiddle3
                      {
                        OFFSET -4.348901 0.0 0.0
                        CHANNELS 3 Zrotation Yrotation Xrotation
                        JOINT RightHandMiddle4
                        {
                          OFFSET -3.00024 2e-06 -4e-06
                          CHANNELS 3 Zrotation Yrotation Xrotation
                          JOINT RightHandMiddleEnd
                          {
                            OFFSET -2.321477 -4e-06 -4e-06
                            CHANNELS 3 Zrotation Yrotation Xrotation
                          }
                        }
                      }
                    }
                  }
                  JOINT RightHandRing1
                  {
                    OFFSET -2.885654 0.293261 -0.119232
                    CHANNELS 3 Zrotation Yrotation Xrotation
                    JOINT RightHandRing2
                    {
                      OFFSET -6.032835 -1e-06 -4e-06
                      CHANNELS 3 Zrotation Yrotation Xrotation
                      JOINT RightHandRing3
                      {
                        OFFSET -4.33881 0.0 -4e-06
                        CHANNELS 3 Zrotation Yrotation Xrotation
                        JOINT RightHandRing4
                        {
                          OFFSET -2.654903 -4e-06 -4e-06
                          CHANNELS 3 Zrotation Yrotation Xrotation
                          JOINT RightHandRingEnd
                          {
                            OFFSET -1.935122 0.0 4e-06
                            CHANNELS 3 Zrotation Yrotation Xrotation
                          }
                        }
                      }
                    }
                  }
                  JOINT RightHandPinky1
                  {
                    OFFSET -2.866241 1.503904 -0.60527
                    CHANNELS 3 Zrotation Yrotation Xrotation
                    JOINT RightHandPinky2
                    {
                      OFFSET -5.553177 -2e-06 0.0
                      CHANNELS 3 Zrotation Yrotation Xrotation
                      JOINT RightHandPinky3
                      {
                        OFFSET -3.062664 -1e-06 -4e-06
                        CHANNELS 3 Zrotation Yrotation Xrotation
                        JOINT RightHandPinky4
                        {
                          OFFSET -1.546529 2e-06 4e-06
                          CHANNELS 3 Zrotation Yrotation Xrotation
                          JOINT RightHandPinkyEnd
                          {
                            OFFSET -1.952341 0.0 -4e-06
                            CHANNELS 3 Zrotation Yrotation Xrotation
                          }
                        }
                      }
                    }
                  }
                }
              }
            }
          }
        }
      }
    }
    JOINT LeftLeg
    {
      OFFSET -8.443107 2.567604 10.043214
      CHANNELS 3 Zrotation Yrotation Xrotation
      JOINT LeftShin
      {
        OFFSET 43.229198 1e-06 -1e-06
        CHANNELS 3 Zrotation Yrotation Xrotation
        JOINT LeftFoot
        {
          OFFSET 42.298611 1e-06 1e-06
          CHANNELS 3 Zrotation Yrotation Xrotation
          JOINT LeftToeBase
          {
            OFFSET 14.165858 1e-06 0.0
            CHANNELS 3 Zrotation Yrotation Xrotation
            JOINT LeftToeEnd
            {
              OFFSET 6.7141 -0.234461 0.0
              CHANNELS 3 Zrotation Yrotation Xrotation
            }
          }
        }
      }
    }
    JOINT RightLeg
    {
      OFFSET -8.303923 2.592729 -10.047278
      CHANNELS 3 Zrotation Yrotation Xrotation
      JOINT RightShin
      {
        OFFSET -43.369682 0.0 1e-06
        CHANNELS 3 Zrotation Yrotation Xrotation
        JOINT RightFoot
        {
          OFFSET -42.260784 4e-06 2e-06
          CHANNELS 3 Zrotation Yrotation Xrotation
          JOINT RightToeBase
          {
            OFFSET -14.222245 -2e-06 -1e-06
            CHANNELS 3 Zrotation Yrotation Xrotation
            JOINT RightToeEnd
            {
              OFFSET -6.660062 0.232574 -2e-06
              CHANNELS 3 Zrotation Yrotation Xrotation
            }
          }
        }
      }
    }
  }
}
MOTION
Frames: 4
Frame Time: 0.03333333333333333
0.0 0.0 0.0 0.0 -0.0 0.0 -1.952487 99.841377 -1.6086 91.552155 -3.217166 91.059746 -3.815713 -0.702174 -0.298527 -12.402168 -0.629834 0.21026 10.574453 -0.705704 -2.422056 1.651989 0.007987 2.239824 -2.553218 -0.612821 0.846278 -40.948723 0.28236 -2.999096 7e-06 0.0 -0.0 0.02399 -0.004991 0.005667 0.625509 -0.224424 0.115166 0.633439 0.210475 -0.091971 -35.000443 -69.934319 39.789124 -0.011567 4.405824 -77.756096 37.963825 -1.995597 -0.211771 -17.974363 15.366534 -43.160904 17.636633 -26.322737 52.411194 -19.466658 -14.395597 29.410389 -1e-06 -8.77482 -2e-06 16.555983 -16.960899 5.88587 -0.609775 -1.795654 -3.889328 -4.807088 -11.046813 -2.937851 4e-06 -20.976019 1e-06 -5.019972 -25.033556 -4.031878 4e-06 -0.0 -0.0 -10.634531 -5.686969 -3.565587 10.573275 -17.922951 -3.113899 1e-06 -13.821209 2e-06 -0.501778 -31.181505 -4.027016 -11.582721 -59.898643 8.242564 -13.982714 -7.150198 -2.875042 13.772731 -8.401492 -3.218242 0.347728 -34.211552 0.771657 -0.963029 -17.733366 2.621022 1e-06 1e-06 0.0 -17.346416 -20.095217 -4.20178 21.757557 -1.638375 3.866428 1e-06 -6.338824 2e-06 -1.69759 -22.591747 -6.194006 0.0 -6e-06 -3e-06 167.686798 -66.796494 14.540821 -5.357189 5.152495 -70.527588 23.889376 -0.998451 -0.672591 -11.837584 8.801269 -10.189702 22.182108 -20.375889 49.933308 -16.701811 -16.743525 28.476522 -3e-06 -12.690598 -1e-06 16.480486 -16.072121 2.160548 -0.105918 -1.513855 -4.27588 -5.039041 -5.612871 -2.953555 5e-06 -11.020521 -1e-06 -6.111296 -15.89533 -3.840469 -0.0 -0.0 0.0 -10.283369 -5.680287 -4.341836 11.028288 -11.302404 -2.372633 -1.384267 -14.23858 -6.32012 -0.625438 -26.924191 -3.827602 -4.482453 -49.531155 -3.519288 -13.708517 -7.363474 -3.720938 18.141142 -14.052736 -3.242674 6e-06 -18.787268 -2e-06 -0.42971 -8.456042 2.555504 -1e-06 0.0 0.0 -15.923532 -20.094482 -5.473584 30.419205 -7.190824 1.735925 5e-06 -8.162924 -2e-06 -1.861902 -22.861465 -6.167942 -1e-06 -4e-06 0.0 -178.357117 -1.322996 -8.006151 6.103576 -0.056238 0.172265 -79.877457 2.277239 -3.842929 -4.632946 1.443724 2.15874 -0.999999 0.0 -0.0 -2.98365 -5.376155 -2.890569 14.776874 -0.072267 -0.020724 -83.971817 1.469403 -5.189304 -4.161735 0.849113 1.75099 -1.000001 0.0 -0.0 
0.0 0.0 0.0 0.0 -0.0 0.0 -2.012692 99.836502 -1.550056 91.532059 -3.290066 90.976807 -3.817455 -0.684108 -0.292891 -12.413256 -0.616389 0.206802 10.545615 -0.666177 -2.419263 1.661781 0.077355 2.208206 -2.547976 -0.596032 0.863634 -40.966816 0.201725 -2.945098 7e-06 -0.0 -0.0 0.025822 0.003966 0.015146 0.639361 -0.217357 0.121473 0.646306 0.221301 -0.078779 -34.156063 -69.73127 38.853558 -0.157345 4.586506 -78.235649 37.557457 -2.042167 -0.200624 -18.128658 15.406259 -43.668026 17.636621 -26.322739 52.411198 -19.466654 -14.395598 29.410385 -1e-06 -8.774821 -1e-06 16.537931 -16.986406 5.903608 -0.60978 -1.795651 -3.889326 -4.807086 -11.046809 -2.93785 4e-06 -20.976011 2e-06 -5.019974 -25.033556 -4.031879 5e-06 -0.0 1e-06 -10.634537 -5.686967 -3.565585 10.573276 -17.922947 -3.113899 3e-06 -13.821205 0.0 -0.501781 -31.181498 -4.027009 -11.538118 -59.844315 8.206223 -13.982714 -7.150194 -2.87504 13.772731 -8.401491 -3.21824 0.347728 -34.21154 0.771658 -0.96303 -17.733364 2.62102 -1e-06 2e-06 2e-06 -17.346416 -20.095213 -4.201779 21.757557 -1.638374 3.866427 -1e-06 -6.338823 3e-06 -1.697596 -22.591743 -6.194002 1e-06 -4e-06 -2e-06 167.907166 -66.514221 14.149196 -5.555449 5.406501 -71.0886 23.52566 -0.940679 -0.631456 -11.672317 8.845519 -10.149883 22.182117 -20.3759 49.933327 -16.701811 -16.743528 28.47653 -3e-06 -12.690601 -1e-06 16.510399 -16.066818 2.157935 -0.105922 -1.513856 -4.275881 -5.039039 -5.612871 -2.953557 4e-06 -11.020523 -1e-06 -6.111295 -15.89533 -3.840471 -1e-06 0.0 0.0 -10.283373 -5.680288 -4.34184 11.028293 -11.302404 -2.372631 -1.384267 -14.238579 -6.320121 -0.625437 -26.924187 -3.8276 -4.537652 -49.610294 -3.510679 -13.708524 -7.363475 -3.72094 18.141148 -14.052739 -3.242672 7e-06 -18.78727 -0.0 -0.42971 -8.456041 2.555503 1e-06 -1e-06 0.0 -15.923532 -20.094482 -5.473587 30.41921 -7.190826 1.735926 5e-06 -8.162925 -1e-06 -1.861903 -22.861469 -6.167941 -1e-06 -3e-06 0.0 -178.368301 -1.391979 -8.091475 6.085643 -0.060322 0.172018 -79.906563 2.28541 -3.842017 -4.612083 1.444853 2.156348 -0.999998 0.0 0.0 -3.039517 -5.316315 -2.883987 14.813604 -0.068631 -0.013477 -84.01593 1.496698 -5.067968 -4.175859 0.854535 1.748492 -1.000002 0.0 0.0 
0.0 0.0 0.0 0.0 -0.0 0.0 -2.075773 99.836281 -1.488352 91.523262 -3.384768 90.914833 -3.823089 -0.681238 -0.30503 -12.444057 -0.609076 0.191811 10.526693 -0.625637 -2.399359 1.703499 0.191037 2.166284 -2.532286 -0.589676 0.907122 -41.056019 0.088777 -2.854817 9e-06 -0.0 -0.0 0.029538 0.013579 0.02458 0.656896 -0.207777 0.12857 0.662117 0.230888 -0.067197 -33.268318 -69.496162 37.849014 -0.315762 4.752337 -78.672798 37.190525 -2.07929 -0.219562 -18.243141 15.392231 -44.173592 17.636625 -26.322733 52.411182 -19.466648 -14.395596 29.410378 -1e-06 -8.77482 -0.0 16.485453 -17.017563 5.954065 -0.609778 -1.795655 -3.889326 -4.807085 -11.046807 -2.937851 5e-06 -20.976011 -0.0 -5.019973 -25.033546 -4.031879 7e-06 -1e-06 -1e-06 -10.634529 -5.68697 -3.565586 10.573271 -17.922945 -3.113898 2e-06 -13.821205 -1e-06 -0.501782 -31.181498 -4.027012 -11.498506 -59.750378 8.190145 -13.982711 -7.150197 -2.875037 13.772724 -8.401489 -3.218241 0.347729 -34.211536 0.771658 -0.963033 -17.733366 2.621022 1e-06 2e-06 0.0 -17.346413 -20.095209 -4.201779 21.757551 -1.638373 3.866426 -0.0 -6.338821 2e-06 -1.697592 -22.591742 -6.194002 -1e-06 -4e-06 -1e-06 168.160919 -66.257248 13.802915 -5.795499 5.69712 -71.763313 23.170876 -0.869181 -0.588399 -11.504893 8.882827 -10.178772 22.182108 -20.375896 49.933319 -16.701811 -16.74353 28.476528 -3e-06 -12.6906 -0.0 16.568926 -16.091684 2.140832 -0.10592 -1.513856 -4.275882 -5.039041 -5.612871 -2.953557 7e-06 -11.020521 -2e-06 -6.111293 -15.89533 -3.840471 1e-06 -1e-06 -0.0 -10.283371 -5.680286 -4.341838 11.028295 -11.302404 -2.372633 -1.384267 -14.238578 -6.32012 -0.625436 -26.924187 -3.8276 -4.607496 -49.681232 -3.465264 -13.708527 -7.363473 -3.72094 18.141146 -14.052738 -3.242674 7e-06 -18.78727 -0.0 -0.429709 -8.456039 2.555505 1e-06 -1e-06 1e-06 -15.923536 -20.094481 -5.473585 30.419207 -7.190826 1.735925 4e-06 -8.162922 -1e-06 -1.861903 -22.861465 -6.16794 -1e-06 -2e-06 0.0 -178.383484 -1.445453 -8.137671 6.017891 -0.062637 0.157577 -79.889252 2.252752 -3.832767 -4.58856 1.441261 2.15265 -0.999999 -0.0 0.0 -3.104027 -5.277171 -2.955508 14.826264 -0.06571 -0.006864 -84.049156 1.583116 -4.95477 -4.175394 0.862634 1.747462 -1.000002 -0.0 0.0 
0.0 0.0 0.0 0.0 -0.0 0.0 -2.13546 99.838081 -1.420658 91.531418 -3.492071 90.86544 -3.829247 -0.706884 -0.337868 -12.475115 -0.619682 0.163485 10.507856 -0.589141 -2.38114 1.757802 0.365904 2.124831 -2.51474 -0.592163 0.950203 -41.202499 -0.016003 -2.722561 7e-06 0.0 -0.0 0.032843 0.018937 0.0285 0.668871 -0.20302 0.129703 0.672574 0.236773 -0.061656 -32.333649 -69.182755 36.816883 -0.523384 4.882978 -79.225945 36.881268 -2.141123 -0.295024 -18.320158 15.402962 -44.775333 17.636625 -26.322729 52.411182 -19.466654 -14.395596 29.410381 -1e-06 -8.77482 -2e-06 16.459929 -17.064116 5.997373 -0.609774 -1.795654 -3.88933 -4.807086 -11.046809 -2.937849 4e-06 -20.976011 -0.0 -5.019971 -25.033546 -4.031878 7e-06 1e-06 -0.0 -10.634531 -5.686968 -3.565587 10.573275 -17.922947 -3.113901 3e-06 -13.821209 -3e-06 -0.501779 -31.181498 -4.027014 -11.459081 -59.64764 8.174406 -13.982707 -7.150197 -2.875043 13.772725 -8.401488 -3.218239 0.347731 -34.21154 0.771654 -0.96303 -17.733362 2.621023 0.0 1e-06 1e-06 -17.346416 -20.095217 -4.201781 21.757557 -1.638374 3.866425 -0.0 -6.338822 1e-06 -1.697592 -22.591743 -6.194002 -0.0 -4e-06 -1e-06 168.488708 -66.035324 13.424341 -6.073256 6.017645 -72.596886 22.785637 -0.800896 -0.519828 -11.368133 8.952596 -10.266109 22.182112 -20.375885 49.933308 -16.701809 -16.743528 28.476522 -2e-06 -12.6906 -1e-06 16.665323 -16.144384 2.111188 -0.10592 -1.513857 -4.275882 -5.03904 -5.612871 -2.953557 4e-06 -11.020523 -2e-06 -6.111295 -15.895332 -3.840472 -0.0 -1e-06 -0.0 -10.283367 -5.680288 -4.341838 11.028291 -11.302404 -2.372633 -1.384269 -14.238579 -6.320121 -0.625437 -26.924185 -3.827602 -4.661932 -49.728321 -3.411502 -13.708522 -7.363475 -3.720938 18.141146 -14.052736 -3.242675 8e-06 -18.78727 -2e-06 -0.42971 -8.456041 2.555503 1e-06 -0.0 0.0 -15.923536 -20.094482 -5.473583 30.41921 -7.190824 1.735926 3e-06 -8.162924 -1e-06 -1.861901 -22.861467 -6.167942 -1e-06 -5e-06 -0.0 -178.395111 -1.479802 -8.177002 5.911636 -0.062629 0.14026 -79.836235 2.226191 -3.834765 -4.567309 1.428053 2.149936 -1.0 0.0 -0.0 -3.176165 -5.25117 -3.058319 14.839949 -0.064951 -0.005318 -84.091209 1.697656 -4.851815 -4.14833 0.863649 1.745457 -1.000002 -0.0 -0.0 
